<mxfile host="app.diagrams.net" modified="2023-11-15T10:52:20.886Z" agent="Mozilla/5.0 (Windows NT 10.0; Win64; x64) AppleWebKit/537.36 (KHTML, like Gecko) Chrome/119.0.0.0 Safari/537.36" etag="h2WD_vhUadmrS6l3ywsk" version="22.1.1" type="device">
  <diagram name="Page-1" id="OypRMn4Sx7ilkWSWpeOH">
    <mxGraphModel dx="1400" dy="674" grid="1" gridSize="10" guides="1" tooltips="1" connect="1" arrows="1" fold="1" page="1" pageScale="1" pageWidth="850" pageHeight="1100" math="0" shadow="0">
      <root>
        <mxCell id="0" />
        <mxCell id="1" parent="0" />
        <mxCell id="7XQceL4P14bk4PRXBWP1-56" style="edgeStyle=orthogonalEdgeStyle;shape=connector;rounded=0;orthogonalLoop=1;jettySize=auto;html=1;exitX=0;exitY=0.5;exitDx=0;exitDy=0;entryX=0.5;entryY=0;entryDx=0;entryDy=0;labelBackgroundColor=default;strokeColor=default;align=center;verticalAlign=middle;fontFamily=Helvetica;fontSize=11;fontColor=default;endArrow=classic;" edge="1" parent="1" source="7XQceL4P14bk4PRXBWP1-1" target="7XQceL4P14bk4PRXBWP1-2">
          <mxGeometry relative="1" as="geometry" />
        </mxCell>
        <mxCell id="7XQceL4P14bk4PRXBWP1-57" style="edgeStyle=orthogonalEdgeStyle;shape=connector;rounded=0;orthogonalLoop=1;jettySize=auto;html=1;exitX=1;exitY=0.5;exitDx=0;exitDy=0;entryX=0.5;entryY=0;entryDx=0;entryDy=0;labelBackgroundColor=default;strokeColor=default;align=center;verticalAlign=middle;fontFamily=Helvetica;fontSize=11;fontColor=default;endArrow=classic;" edge="1" parent="1" source="7XQceL4P14bk4PRXBWP1-1" target="7XQceL4P14bk4PRXBWP1-11">
          <mxGeometry relative="1" as="geometry" />
        </mxCell>
        <mxCell id="7XQceL4P14bk4PRXBWP1-114" value="&lt;div style=&quot;color: rgb(204, 202, 194); background-color: rgb(31, 36, 48); font-family: Consolas, &amp;quot;Courier New&amp;quot;, monospace; font-size: 14px; line-height: 19px;&quot;&gt;props&lt;span style=&quot;color: #f29e74;&quot;&gt;.&lt;/span&gt;items&lt;/div&gt;" style="edgeLabel;html=1;align=center;verticalAlign=middle;resizable=0;points=[];fontSize=11;fontFamily=Helvetica;fontColor=default;" vertex="1" connectable="0" parent="7XQceL4P14bk4PRXBWP1-57">
          <mxGeometry x="0.6531" y="3" relative="1" as="geometry">
            <mxPoint x="-1" as="offset" />
          </mxGeometry>
        </mxCell>
        <mxCell id="7XQceL4P14bk4PRXBWP1-1" value="app.js" style="whiteSpace=wrap;html=1;aspect=fixed;" vertex="1" parent="1">
          <mxGeometry x="500" y="240" width="70" height="70" as="geometry" />
        </mxCell>
        <mxCell id="7XQceL4P14bk4PRXBWP1-52" style="edgeStyle=orthogonalEdgeStyle;shape=connector;rounded=0;orthogonalLoop=1;jettySize=auto;html=1;exitX=0.5;exitY=1;exitDx=0;exitDy=0;entryX=0.5;entryY=0;entryDx=0;entryDy=0;labelBackgroundColor=default;strokeColor=default;align=center;verticalAlign=middle;fontFamily=Helvetica;fontSize=11;fontColor=default;endArrow=classic;" edge="1" parent="1" source="7XQceL4P14bk4PRXBWP1-2" target="7XQceL4P14bk4PRXBWP1-3">
          <mxGeometry relative="1" as="geometry" />
        </mxCell>
        <mxCell id="7XQceL4P14bk4PRXBWP1-55" style="edgeStyle=orthogonalEdgeStyle;shape=connector;rounded=0;orthogonalLoop=1;jettySize=auto;html=1;exitX=0.5;exitY=0;exitDx=0;exitDy=0;entryX=0;entryY=0.5;entryDx=0;entryDy=0;labelBackgroundColor=default;strokeColor=default;align=center;verticalAlign=middle;fontFamily=Helvetica;fontSize=11;fontColor=default;endArrow=classic;" edge="1" parent="1" source="7XQceL4P14bk4PRXBWP1-2" target="7XQceL4P14bk4PRXBWP1-1">
          <mxGeometry relative="1" as="geometry" />
        </mxCell>
        <mxCell id="7XQceL4P14bk4PRXBWP1-83" value="&lt;div style=&quot;color: rgb(204, 202, 194); background-color: rgb(31, 36, 48); font-family: Consolas, &amp;quot;Courier New&amp;quot;, monospace; font-size: 14px; line-height: 19px;&quot;&gt;&lt;div style=&quot;line-height: 19px;&quot;&gt;props&lt;span style=&quot;color: #f29e74;&quot;&gt;.&lt;/span&gt;&lt;span style=&quot;color: #ffd173;&quot;&gt;onAddExpense&lt;/span&gt;(expenseData)&lt;/div&gt;&lt;/div&gt;" style="edgeLabel;html=1;align=center;verticalAlign=middle;resizable=0;points=[];fontSize=11;fontFamily=Helvetica;fontColor=default;" vertex="1" connectable="0" parent="7XQceL4P14bk4PRXBWP1-55">
          <mxGeometry x="-0.6878" y="1" relative="1" as="geometry">
            <mxPoint y="27" as="offset" />
          </mxGeometry>
        </mxCell>
        <mxCell id="7XQceL4P14bk4PRXBWP1-85" value="&lt;div style=&quot;color: rgb(204, 202, 194); background-color: rgb(31, 36, 48); font-family: Consolas, &amp;quot;Courier New&amp;quot;, monospace; font-size: 14px; line-height: 19px;&quot;&gt;addExpenseHandler&lt;/div&gt;" style="edgeLabel;html=1;align=center;verticalAlign=middle;resizable=0;points=[];fontSize=11;fontFamily=Helvetica;fontColor=default;" vertex="1" connectable="0" parent="7XQceL4P14bk4PRXBWP1-55">
          <mxGeometry x="0.6421" y="1" relative="1" as="geometry">
            <mxPoint x="-25" as="offset" />
          </mxGeometry>
        </mxCell>
        <mxCell id="7XQceL4P14bk4PRXBWP1-2" value="newExpense" style="rounded=0;whiteSpace=wrap;html=1;" vertex="1" parent="1">
          <mxGeometry x="110" y="340" width="120" height="60" as="geometry" />
        </mxCell>
        <mxCell id="7XQceL4P14bk4PRXBWP1-54" style="edgeStyle=orthogonalEdgeStyle;shape=connector;rounded=0;orthogonalLoop=1;jettySize=auto;html=1;exitX=0.5;exitY=0;exitDx=0;exitDy=0;entryX=0.5;entryY=1;entryDx=0;entryDy=0;labelBackgroundColor=default;strokeColor=default;align=center;verticalAlign=middle;fontFamily=Helvetica;fontSize=11;fontColor=default;endArrow=classic;" edge="1" parent="1" source="7XQceL4P14bk4PRXBWP1-3" target="7XQceL4P14bk4PRXBWP1-2">
          <mxGeometry relative="1" as="geometry" />
        </mxCell>
        <mxCell id="7XQceL4P14bk4PRXBWP1-84" value="&lt;div style=&quot;color: rgb(204, 202, 194); background-color: rgb(31, 36, 48); font-family: Consolas, &amp;quot;Courier New&amp;quot;, monospace; font-size: 14px; line-height: 19px;&quot;&gt;&lt;div style=&quot;line-height: 19px;&quot;&gt;props&lt;span style=&quot;color: #f29e74;&quot;&gt;.&lt;/span&gt;&lt;span style=&quot;color: #ffd173;&quot;&gt;onSaveExpenseData&lt;/span&gt;(expenseData)&lt;/div&gt;&lt;/div&gt;" style="edgeLabel;html=1;align=center;verticalAlign=middle;resizable=0;points=[];fontSize=11;fontFamily=Helvetica;fontColor=default;" vertex="1" connectable="0" parent="7XQceL4P14bk4PRXBWP1-54">
          <mxGeometry x="-0.4857" relative="1" as="geometry">
            <mxPoint as="offset" />
          </mxGeometry>
        </mxCell>
        <mxCell id="7XQceL4P14bk4PRXBWP1-86" value="&lt;div style=&quot;color: rgb(204, 202, 194); background-color: rgb(31, 36, 48); font-family: Consolas, &amp;quot;Courier New&amp;quot;, monospace; font-size: 14px; line-height: 19px;&quot;&gt;saveExpenseDataHandler&lt;/div&gt;" style="edgeLabel;html=1;align=center;verticalAlign=middle;resizable=0;points=[];fontSize=11;fontFamily=Helvetica;fontColor=default;" vertex="1" connectable="0" parent="7XQceL4P14bk4PRXBWP1-54">
          <mxGeometry x="0.68" y="-1" relative="1" as="geometry">
            <mxPoint as="offset" />
          </mxGeometry>
        </mxCell>
        <mxCell id="7XQceL4P14bk4PRXBWP1-3" value="expenseForm" style="rounded=0;whiteSpace=wrap;html=1;" vertex="1" parent="1">
          <mxGeometry x="110" y="650" width="120" height="60" as="geometry" />
        </mxCell>
        <mxCell id="7XQceL4P14bk4PRXBWP1-59" style="edgeStyle=orthogonalEdgeStyle;shape=connector;rounded=0;orthogonalLoop=1;jettySize=auto;html=1;exitX=1;exitY=0.5;exitDx=0;exitDy=0;entryX=0.5;entryY=0;entryDx=0;entryDy=0;labelBackgroundColor=default;strokeColor=default;align=center;verticalAlign=middle;fontFamily=Helvetica;fontSize=11;fontColor=default;endArrow=classic;" edge="1" parent="1" source="7XQceL4P14bk4PRXBWP1-11" target="7XQceL4P14bk4PRXBWP1-33">
          <mxGeometry relative="1" as="geometry" />
        </mxCell>
        <mxCell id="7XQceL4P14bk4PRXBWP1-92" value="&lt;font style=&quot;font-size: 15px;&quot;&gt;props.expenses&lt;/font&gt;" style="edgeLabel;html=1;align=center;verticalAlign=middle;resizable=0;points=[];fontSize=11;fontFamily=Helvetica;fontColor=default;rotation=0;" vertex="1" connectable="0" parent="7XQceL4P14bk4PRXBWP1-59">
          <mxGeometry x="0.6909" y="-1" relative="1" as="geometry">
            <mxPoint as="offset" />
          </mxGeometry>
        </mxCell>
        <mxCell id="7XQceL4P14bk4PRXBWP1-69" style="edgeStyle=orthogonalEdgeStyle;shape=connector;rounded=0;orthogonalLoop=1;jettySize=auto;html=1;exitX=0;exitY=0.5;exitDx=0;exitDy=0;entryX=0.5;entryY=0;entryDx=0;entryDy=0;labelBackgroundColor=default;strokeColor=default;align=center;verticalAlign=middle;fontFamily=Helvetica;fontSize=11;fontColor=default;endArrow=classic;" edge="1" parent="1" source="7XQceL4P14bk4PRXBWP1-11" target="7XQceL4P14bk4PRXBWP1-18">
          <mxGeometry relative="1" as="geometry" />
        </mxCell>
        <mxCell id="7XQceL4P14bk4PRXBWP1-120" style="edgeStyle=orthogonalEdgeStyle;shape=connector;rounded=0;orthogonalLoop=1;jettySize=auto;html=1;exitX=0.5;exitY=1;exitDx=0;exitDy=0;entryX=0.5;entryY=0;entryDx=0;entryDy=0;labelBackgroundColor=default;strokeColor=default;align=center;verticalAlign=middle;fontFamily=Helvetica;fontSize=11;fontColor=default;endArrow=classic;" edge="1" parent="1" source="7XQceL4P14bk4PRXBWP1-11" target="7XQceL4P14bk4PRXBWP1-115">
          <mxGeometry relative="1" as="geometry" />
        </mxCell>
        <mxCell id="7XQceL4P14bk4PRXBWP1-122" value="props&lt;span style=&quot;border-color: var(--border-color); font-family: Consolas, &amp;quot;Courier New&amp;quot;, monospace; font-size: 14px; color: rgb(242, 158, 116);&quot;&gt;.&lt;/span&gt;&lt;span style=&quot;color: rgb(204, 202, 194); font-family: Consolas, &amp;quot;Courier New&amp;quot;, monospace; font-size: 14px; background-color: rgb(31, 36, 48);&quot;&gt;items&lt;/span&gt;" style="edgeLabel;html=1;align=center;verticalAlign=middle;resizable=0;points=[];fontSize=11;fontFamily=Helvetica;fontColor=default;" vertex="1" connectable="0" parent="7XQceL4P14bk4PRXBWP1-120">
          <mxGeometry x="0.556" y="5" relative="1" as="geometry">
            <mxPoint as="offset" />
          </mxGeometry>
        </mxCell>
        <mxCell id="7XQceL4P14bk4PRXBWP1-11" value="expenses" style="rounded=0;whiteSpace=wrap;html=1;" vertex="1" parent="1">
          <mxGeometry x="580" y="370" width="110" height="60" as="geometry" />
        </mxCell>
        <mxCell id="7XQceL4P14bk4PRXBWP1-71" style="edgeStyle=orthogonalEdgeStyle;shape=connector;rounded=0;orthogonalLoop=1;jettySize=auto;html=1;exitX=0.5;exitY=1;exitDx=0;exitDy=0;entryX=0.5;entryY=0;entryDx=0;entryDy=0;labelBackgroundColor=default;strokeColor=default;align=center;verticalAlign=middle;fontFamily=Helvetica;fontSize=11;fontColor=default;endArrow=classic;" edge="1" parent="1" source="7XQceL4P14bk4PRXBWP1-15" target="7XQceL4P14bk4PRXBWP1-20">
          <mxGeometry relative="1" as="geometry" />
        </mxCell>
        <mxCell id="7XQceL4P14bk4PRXBWP1-93" value="&lt;font style=&quot;font-size: 16px;&quot;&gt;props.date&lt;/font&gt;" style="edgeLabel;html=1;align=center;verticalAlign=middle;resizable=0;points=[];fontSize=11;fontFamily=Helvetica;fontColor=default;" vertex="1" connectable="0" parent="7XQceL4P14bk4PRXBWP1-71">
          <mxGeometry x="0.4955" y="3" relative="1" as="geometry">
            <mxPoint x="-3" y="-12" as="offset" />
          </mxGeometry>
        </mxCell>
        <mxCell id="7XQceL4P14bk4PRXBWP1-15" value="expensesItem" style="rounded=0;whiteSpace=wrap;html=1;" vertex="1" parent="1">
          <mxGeometry x="575" y="750" width="120" height="60" as="geometry" />
        </mxCell>
        <mxCell id="7XQceL4P14bk4PRXBWP1-70" style="edgeStyle=orthogonalEdgeStyle;shape=connector;rounded=0;orthogonalLoop=1;jettySize=auto;html=1;exitX=0.5;exitY=0;exitDx=0;exitDy=0;entryX=0;entryY=0.5;entryDx=0;entryDy=0;labelBackgroundColor=default;strokeColor=default;align=center;verticalAlign=middle;fontFamily=Helvetica;fontSize=11;fontColor=default;endArrow=classic;" edge="1" parent="1" source="7XQceL4P14bk4PRXBWP1-18" target="7XQceL4P14bk4PRXBWP1-11">
          <mxGeometry relative="1" as="geometry" />
        </mxCell>
        <mxCell id="7XQceL4P14bk4PRXBWP1-79" value="&lt;div style=&quot;color: rgb(204, 202, 194); background-color: rgb(31, 36, 48); font-family: Consolas, &amp;quot;Courier New&amp;quot;, monospace; font-size: 14px; line-height: 19px;&quot;&gt;props.selected&lt;/div&gt;&lt;div style=&quot;color: rgb(204, 202, 194); background-color: rgb(31, 36, 48); font-family: Consolas, &amp;quot;Courier New&amp;quot;, monospace; font-size: 14px; line-height: 19px;&quot;&gt;&lt;div style=&quot;line-height: 19px;&quot;&gt;props&lt;span style=&quot;color: #f29e74;&quot;&gt;.&lt;/span&gt;&lt;span style=&quot;color: #ffd173;&quot;&gt;onChangeFilter&lt;/span&gt;(&lt;span style=&quot;color: #dfbfff;&quot;&gt;event&lt;/span&gt;&lt;span style=&quot;color: #f29e74;&quot;&gt;.&lt;/span&gt;target&lt;span style=&quot;color: #f29e74;&quot;&gt;.&lt;/span&gt;value);&lt;/div&gt;&lt;/div&gt;" style="edgeLabel;html=1;align=center;verticalAlign=middle;resizable=0;points=[];fontSize=11;fontFamily=Helvetica;fontColor=default;" vertex="1" connectable="0" parent="7XQceL4P14bk4PRXBWP1-70">
          <mxGeometry x="-0.5889" y="-1" relative="1" as="geometry">
            <mxPoint as="offset" />
          </mxGeometry>
        </mxCell>
        <mxCell id="7XQceL4P14bk4PRXBWP1-89" value="&lt;div style=&quot;color: rgb(204, 202, 194); background-color: rgb(31, 36, 48); font-family: Consolas, &amp;quot;Courier New&amp;quot;, monospace; font-size: 14px; line-height: 19px;&quot;&gt;filterChangeHandler&lt;/div&gt;" style="edgeLabel;html=1;align=center;verticalAlign=middle;resizable=0;points=[];fontSize=11;fontFamily=Helvetica;fontColor=default;" vertex="1" connectable="0" parent="7XQceL4P14bk4PRXBWP1-70">
          <mxGeometry x="0.6034" relative="1" as="geometry">
            <mxPoint x="-32" as="offset" />
          </mxGeometry>
        </mxCell>
        <mxCell id="7XQceL4P14bk4PRXBWP1-18" value="expenseFilter" style="rounded=0;whiteSpace=wrap;html=1;" vertex="1" parent="1">
          <mxGeometry x="320" y="610" width="120" height="60" as="geometry" />
        </mxCell>
        <mxCell id="7XQceL4P14bk4PRXBWP1-20" value="expenseDate" style="rounded=0;whiteSpace=wrap;html=1;" vertex="1" parent="1">
          <mxGeometry x="575" y="880" width="120" height="60" as="geometry" />
        </mxCell>
        <mxCell id="7XQceL4P14bk4PRXBWP1-43" style="edgeStyle=orthogonalEdgeStyle;rounded=0;orthogonalLoop=1;jettySize=auto;html=1;" edge="1" parent="1" source="7XQceL4P14bk4PRXBWP1-33">
          <mxGeometry relative="1" as="geometry">
            <mxPoint x="840" y="520" as="targetPoint" />
          </mxGeometry>
        </mxCell>
        <mxCell id="7XQceL4P14bk4PRXBWP1-61" style="edgeStyle=orthogonalEdgeStyle;shape=connector;rounded=0;orthogonalLoop=1;jettySize=auto;html=1;exitX=0.5;exitY=1;exitDx=0;exitDy=0;entryX=0.5;entryY=0;entryDx=0;entryDy=0;labelBackgroundColor=default;strokeColor=default;align=center;verticalAlign=middle;fontFamily=Helvetica;fontSize=11;fontColor=default;endArrow=classic;" edge="1" parent="1" source="7XQceL4P14bk4PRXBWP1-33" target="7XQceL4P14bk4PRXBWP1-35">
          <mxGeometry relative="1" as="geometry" />
        </mxCell>
        <mxCell id="7XQceL4P14bk4PRXBWP1-91" value="&lt;font style=&quot;font-size: 15px;&quot;&gt;props.dataPoints.map&lt;/font&gt;" style="edgeLabel;html=1;align=center;verticalAlign=middle;resizable=0;points=[];fontSize=11;fontFamily=Helvetica;fontColor=default;" vertex="1" connectable="0" parent="7XQceL4P14bk4PRXBWP1-61">
          <mxGeometry x="0.5143" y="-2" relative="1" as="geometry">
            <mxPoint x="-1" as="offset" />
          </mxGeometry>
        </mxCell>
        <mxCell id="7XQceL4P14bk4PRXBWP1-33" value="&lt;div style=&quot;color: rgb(204, 202, 194); background-color: rgb(31, 36, 48); font-family: Consolas, &amp;quot;Courier New&amp;quot;, monospace; font-size: 14px; line-height: 19px;&quot;&gt;ExpensesChart&lt;/div&gt;" style="rounded=0;whiteSpace=wrap;html=1;" vertex="1" parent="1">
          <mxGeometry x="780" y="470" width="120" height="60" as="geometry" />
        </mxCell>
        <mxCell id="7XQceL4P14bk4PRXBWP1-64" style="edgeStyle=orthogonalEdgeStyle;shape=connector;rounded=0;orthogonalLoop=1;jettySize=auto;html=1;exitX=0.5;exitY=1;exitDx=0;exitDy=0;entryX=0.5;entryY=0;entryDx=0;entryDy=0;labelBackgroundColor=default;strokeColor=default;align=center;verticalAlign=middle;fontFamily=Helvetica;fontSize=11;fontColor=default;endArrow=classic;" edge="1" parent="1" source="7XQceL4P14bk4PRXBWP1-35" target="7XQceL4P14bk4PRXBWP1-37">
          <mxGeometry relative="1" as="geometry" />
        </mxCell>
        <mxCell id="7XQceL4P14bk4PRXBWP1-90" value="&lt;div&gt;props.maxvalue&lt;/div&gt;&lt;div&gt;props.value&lt;/div&gt;&lt;div&gt;props.label&lt;/div&gt;" style="edgeLabel;html=1;align=center;verticalAlign=middle;resizable=0;points=[];fontSize=11;fontFamily=Helvetica;fontColor=default;" vertex="1" connectable="0" parent="7XQceL4P14bk4PRXBWP1-64">
          <mxGeometry x="0.4125" y="1" relative="1" as="geometry">
            <mxPoint as="offset" />
          </mxGeometry>
        </mxCell>
        <mxCell id="7XQceL4P14bk4PRXBWP1-35" value="&#xa;&lt;div style=&quot;color: rgb(204, 202, 194); background-color: rgb(31, 36, 48); font-family: Consolas, &amp;quot;Courier New&amp;quot;, monospace; font-weight: normal; font-size: 14px; line-height: 19px;&quot;&gt;&lt;div&gt;&lt;span style=&quot;color: #cccac2;&quot;&gt;Chart&lt;/span&gt;&lt;/div&gt;&lt;/div&gt;&#xa;&#xa;" style="whiteSpace=wrap;html=1;rounded=0;" vertex="1" parent="1">
          <mxGeometry x="780" y="670" width="120" height="60" as="geometry" />
        </mxCell>
        <mxCell id="7XQceL4P14bk4PRXBWP1-37" value="&#xa;&lt;div style=&quot;color: rgb(204, 202, 194); background-color: rgb(31, 36, 48); font-family: Consolas, &amp;quot;Courier New&amp;quot;, monospace; font-weight: normal; font-size: 14px; line-height: 19px;&quot;&gt;&lt;div&gt;&lt;span style=&quot;color: #cccac2;&quot;&gt;ChartBar&lt;/span&gt;&lt;/div&gt;&lt;/div&gt;&#xa;&#xa;" style="whiteSpace=wrap;html=1;rounded=0;" vertex="1" parent="1">
          <mxGeometry x="780" y="850" width="120" height="60" as="geometry" />
        </mxCell>
        <mxCell id="7XQceL4P14bk4PRXBWP1-118" style="edgeStyle=orthogonalEdgeStyle;shape=connector;rounded=0;orthogonalLoop=1;jettySize=auto;html=1;exitX=0.5;exitY=1;exitDx=0;exitDy=0;entryX=0.5;entryY=0;entryDx=0;entryDy=0;labelBackgroundColor=default;strokeColor=default;align=center;verticalAlign=middle;fontFamily=Helvetica;fontSize=11;fontColor=default;endArrow=classic;" edge="1" parent="1" source="7XQceL4P14bk4PRXBWP1-115" target="7XQceL4P14bk4PRXBWP1-15">
          <mxGeometry relative="1" as="geometry" />
        </mxCell>
        <mxCell id="7XQceL4P14bk4PRXBWP1-119" value="&lt;div style=&quot;border-color: var(--border-color); font-size: 14px;&quot;&gt;&lt;font style=&quot;border-color: var(--border-color);&quot;&gt;props.Date&lt;/font&gt;&lt;/div&gt;&lt;div style=&quot;border-color: var(--border-color); font-size: 14px;&quot;&gt;&lt;font style=&quot;border-color: var(--border-color);&quot;&gt;props.Title&lt;/font&gt;&lt;/div&gt;&lt;div style=&quot;border-color: var(--border-color); font-size: 14px;&quot;&gt;&lt;font style=&quot;border-color: var(--border-color);&quot;&gt;props.Amount&lt;/font&gt;&lt;/div&gt;" style="edgeLabel;html=1;align=center;verticalAlign=middle;resizable=0;points=[];fontSize=11;fontFamily=Helvetica;fontColor=default;" vertex="1" connectable="0" parent="7XQceL4P14bk4PRXBWP1-118">
          <mxGeometry x="0.6358" y="1" relative="1" as="geometry">
            <mxPoint x="-1" y="-15" as="offset" />
          </mxGeometry>
        </mxCell>
        <mxCell id="7XQceL4P14bk4PRXBWP1-115" value="expensesList" style="rounded=0;whiteSpace=wrap;html=1;fontFamily=Helvetica;fontSize=11;fontColor=default;" vertex="1" parent="1">
          <mxGeometry x="575" y="550" width="120" height="60" as="geometry" />
        </mxCell>
      </root>
    </mxGraphModel>
  </diagram>
</mxfile>
